<mxfile host="app.diagrams.net" modified="2021-10-20T16:45:04.649Z" agent="5.0 (Macintosh; Intel Mac OS X 10_15_7) AppleWebKit/537.36 (KHTML, like Gecko) Chrome/94.0.4606.81 Safari/537.36" etag="W4c_JmTTgPF7lzBJ9Ht_" version="15.5.4" type="github">
  <diagram id="R2lEEEUBdFMjLlhIrx00" name="Page-1">
    <mxGraphModel dx="946" dy="504" grid="1" gridSize="10" guides="1" tooltips="1" connect="1" arrows="1" fold="1" page="1" pageScale="1" pageWidth="850" pageHeight="1100" math="0" shadow="0" extFonts="Permanent Marker^https://fonts.googleapis.com/css?family=Permanent+Marker">
      <root>
        <mxCell id="0" />
        <mxCell id="1" parent="0" />
        <mxCell id="Uebg3OEyPI29N-F5zzTL-30" value="" style="group" parent="1" vertex="1" connectable="0">
          <mxGeometry x="440" y="40" width="120" height="240" as="geometry" />
        </mxCell>
        <mxCell id="Uebg3OEyPI29N-F5zzTL-23" value="" style="group" parent="Uebg3OEyPI29N-F5zzTL-30" vertex="1" connectable="0">
          <mxGeometry width="120" height="240" as="geometry" />
        </mxCell>
        <mxCell id="Uebg3OEyPI29N-F5zzTL-21" value="" style="rounded=0;whiteSpace=wrap;html=1;strokeWidth=0;align=left;" parent="Uebg3OEyPI29N-F5zzTL-23" vertex="1">
          <mxGeometry width="120" height="240" as="geometry" />
        </mxCell>
        <mxCell id="Uebg3OEyPI29N-F5zzTL-22" value="players" style="rounded=0;whiteSpace=wrap;html=1;fillColor=#e1d5e7;strokeColor=#9673a6;" parent="Uebg3OEyPI29N-F5zzTL-23" vertex="1">
          <mxGeometry width="120" height="32" as="geometry" />
        </mxCell>
        <mxCell id="Uebg3OEyPI29N-F5zzTL-26" value="ID&lt;br&gt;name&lt;br&gt;&amp;nbsp; &amp;nbsp;&amp;nbsp;first_name&lt;br&gt;&lt;span&gt;&lt;/span&gt;&amp;nbsp; &amp;nbsp;&amp;nbsp;middle_name&lt;br&gt;&lt;span&gt;&lt;/span&gt;&amp;nbsp; &amp;nbsp;&amp;nbsp;last_name&lt;br&gt;email&lt;br&gt;dob&lt;br&gt;created_at&lt;br&gt;updated_at&lt;br&gt;{ phone_number }" style="text;html=1;strokeColor=none;fillColor=none;align=left;verticalAlign=top;whiteSpace=wrap;rounded=0;" parent="Uebg3OEyPI29N-F5zzTL-30" vertex="1">
          <mxGeometry y="32" width="120" height="208" as="geometry" />
        </mxCell>
        <mxCell id="Uebg3OEyPI29N-F5zzTL-31" value="" style="group" parent="1" vertex="1" connectable="0">
          <mxGeometry x="80" y="40" width="130" height="240" as="geometry" />
        </mxCell>
        <mxCell id="Uebg3OEyPI29N-F5zzTL-32" value="" style="group" parent="Uebg3OEyPI29N-F5zzTL-31" vertex="1" connectable="0">
          <mxGeometry width="130" height="240" as="geometry" />
        </mxCell>
        <mxCell id="Uebg3OEyPI29N-F5zzTL-33" value="" style="rounded=0;whiteSpace=wrap;html=1;strokeWidth=0;align=left;" parent="Uebg3OEyPI29N-F5zzTL-32" vertex="1">
          <mxGeometry width="130" height="240" as="geometry" />
        </mxCell>
        <mxCell id="Uebg3OEyPI29N-F5zzTL-34" value="teams" style="rounded=0;whiteSpace=wrap;html=1;fillColor=#e1d5e7;strokeColor=#9673a6;" parent="Uebg3OEyPI29N-F5zzTL-32" vertex="1">
          <mxGeometry width="130" height="32" as="geometry" />
        </mxCell>
        <mxCell id="Uebg3OEyPI29N-F5zzTL-35" value="ID&lt;br&gt;name&lt;br&gt;address&lt;br&gt;&amp;nbsp; &amp;nbsp; street&lt;br&gt;&amp;nbsp; &amp;nbsp; &amp;nbsp; &amp;nbsp; name&lt;br&gt;&lt;span&gt;&lt;/span&gt;&lt;span&gt;&lt;/span&gt;&amp;nbsp; &amp;nbsp; &amp;nbsp; &amp;nbsp;&amp;nbsp;number&lt;br&gt;&lt;span&gt;&lt;/span&gt;&lt;span&gt;&lt;/span&gt;&amp;nbsp; &amp;nbsp; &amp;nbsp; &amp;nbsp;&amp;nbsp;apt_number&lt;br&gt;&lt;span&gt;&lt;/span&gt;&amp;nbsp; &amp;nbsp;&amp;nbsp;city&lt;span&gt;	&lt;/span&gt;&lt;br&gt;&lt;span&gt;&lt;/span&gt;&amp;nbsp; &amp;nbsp;&amp;nbsp;region&lt;br&gt;&lt;span&gt;&lt;/span&gt;&amp;nbsp; &amp;nbsp;&amp;nbsp;country&lt;br&gt;&lt;span&gt;&lt;/span&gt;&amp;nbsp; &amp;nbsp;&amp;nbsp;postal_code&lt;br&gt;date_founded" style="text;html=1;strokeColor=none;fillColor=none;align=left;verticalAlign=top;whiteSpace=wrap;rounded=0;" parent="Uebg3OEyPI29N-F5zzTL-31" vertex="1">
          <mxGeometry y="32" width="130" height="208" as="geometry" />
        </mxCell>
        <mxCell id="Uebg3OEyPI29N-F5zzTL-36" value="" style="group;fillColor=#d5e8d4;strokeColor=#82b366;" parent="1" vertex="1" connectable="0">
          <mxGeometry x="680" y="40" width="120" height="80" as="geometry" />
        </mxCell>
        <mxCell id="Uebg3OEyPI29N-F5zzTL-37" value="" style="group" parent="Uebg3OEyPI29N-F5zzTL-36" vertex="1" connectable="0">
          <mxGeometry width="120" height="80" as="geometry" />
        </mxCell>
        <mxCell id="Uebg3OEyPI29N-F5zzTL-38" value="" style="rounded=0;whiteSpace=wrap;html=1;strokeWidth=0;align=left;" parent="Uebg3OEyPI29N-F5zzTL-37" vertex="1">
          <mxGeometry width="120" height="80" as="geometry" />
        </mxCell>
        <mxCell id="Uebg3OEyPI29N-F5zzTL-39" value="phone_numbers" style="rounded=0;whiteSpace=wrap;html=1;fillColor=#e1d5e7;strokeColor=#9673a6;" parent="Uebg3OEyPI29N-F5zzTL-37" vertex="1">
          <mxGeometry width="120" height="26.666666666666664" as="geometry" />
        </mxCell>
        <mxCell id="Uebg3OEyPI29N-F5zzTL-40" value="phone_number" style="text;html=1;strokeColor=none;fillColor=none;align=left;verticalAlign=top;whiteSpace=wrap;rounded=0;" parent="Uebg3OEyPI29N-F5zzTL-37" vertex="1">
          <mxGeometry y="33.33333333333333" width="120" height="13" as="geometry" />
        </mxCell>
        <mxCell id="Uebg3OEyPI29N-F5zzTL-49" value="" style="group" parent="1" vertex="1" connectable="0">
          <mxGeometry x="580" y="120" width="90" height="80" as="geometry" />
        </mxCell>
        <mxCell id="Uebg3OEyPI29N-F5zzTL-47" value="" style="rhombus;whiteSpace=wrap;html=1;strokeWidth=1;align=left;verticalAlign=middle;" parent="Uebg3OEyPI29N-F5zzTL-49" vertex="1">
          <mxGeometry width="90" height="80.00000000000001" as="geometry" />
        </mxCell>
        <mxCell id="Uebg3OEyPI29N-F5zzTL-48" value="&lt;font style=&quot;font-size: 9px&quot;&gt;player_phones&lt;/font&gt;" style="rhombus;whiteSpace=wrap;html=1;strokeWidth=1;align=center;verticalAlign=middle;" parent="Uebg3OEyPI29N-F5zzTL-49" vertex="1">
          <mxGeometry x="4.5" y="4" width="81" height="72.00000000000001" as="geometry" />
        </mxCell>
        <mxCell id="Uebg3OEyPI29N-F5zzTL-51" value="" style="endArrow=none;html=1;rounded=0;entryX=0.5;entryY=1;entryDx=0;entryDy=0;" parent="1" target="Uebg3OEyPI29N-F5zzTL-38" edge="1">
          <mxGeometry width="50" height="50" relative="1" as="geometry">
            <mxPoint x="740" y="160" as="sourcePoint" />
            <mxPoint x="590" y="140" as="targetPoint" />
          </mxGeometry>
        </mxCell>
        <mxCell id="Uebg3OEyPI29N-F5zzTL-52" value="" style="endArrow=none;html=1;rounded=0;exitX=1.015;exitY=0.506;exitDx=0;exitDy=0;exitPerimeter=0;" parent="1" source="Uebg3OEyPI29N-F5zzTL-47" edge="1">
          <mxGeometry width="50" height="50" relative="1" as="geometry">
            <mxPoint x="680" y="200" as="sourcePoint" />
            <mxPoint x="740" y="160" as="targetPoint" />
            <Array as="points">
              <mxPoint x="740" y="160" />
            </Array>
          </mxGeometry>
        </mxCell>
        <mxCell id="Uebg3OEyPI29N-F5zzTL-53" value="" style="endArrow=none;html=1;rounded=0;exitX=0.999;exitY=0.424;exitDx=0;exitDy=0;exitPerimeter=0;entryX=0;entryY=0.5;entryDx=0;entryDy=0;" parent="1" source="Uebg3OEyPI29N-F5zzTL-26" target="Uebg3OEyPI29N-F5zzTL-47" edge="1">
          <mxGeometry width="50" height="50" relative="1" as="geometry">
            <mxPoint x="560" y="180" as="sourcePoint" />
            <mxPoint x="610" y="130" as="targetPoint" />
          </mxGeometry>
        </mxCell>
        <mxCell id="Uebg3OEyPI29N-F5zzTL-54" value="" style="endArrow=none;html=1;rounded=0;" parent="1" edge="1">
          <mxGeometry width="50" height="50" relative="1" as="geometry">
            <mxPoint x="738" y="160" as="sourcePoint" />
            <mxPoint x="738" y="120" as="targetPoint" />
          </mxGeometry>
        </mxCell>
        <mxCell id="Uebg3OEyPI29N-F5zzTL-56" value="" style="endArrow=none;html=1;rounded=0;exitX=1.015;exitY=0.506;exitDx=0;exitDy=0;exitPerimeter=0;" parent="1" edge="1">
          <mxGeometry width="50" height="50" relative="1" as="geometry">
            <mxPoint x="669" y="158.48000000000002" as="sourcePoint" />
            <mxPoint x="738" y="158" as="targetPoint" />
            <Array as="points" />
          </mxGeometry>
        </mxCell>
        <mxCell id="Uebg3OEyPI29N-F5zzTL-57" value="team_captain" style="rhombus;whiteSpace=wrap;html=1;fontSize=9;strokeWidth=1;align=center;verticalAlign=middle;" parent="1" vertex="1">
          <mxGeometry x="280" y="67" width="80" height="80" as="geometry" />
        </mxCell>
        <mxCell id="Uebg3OEyPI29N-F5zzTL-58" value="" style="endArrow=none;html=1;rounded=0;fontSize=9;entryX=1;entryY=0.5;entryDx=0;entryDy=0;exitX=0;exitY=0.168;exitDx=0;exitDy=0;exitPerimeter=0;" parent="1" source="Uebg3OEyPI29N-F5zzTL-26" target="Uebg3OEyPI29N-F5zzTL-57" edge="1">
          <mxGeometry width="50" height="50" relative="1" as="geometry">
            <mxPoint x="430" y="100" as="sourcePoint" />
            <mxPoint x="340" y="100" as="targetPoint" />
          </mxGeometry>
        </mxCell>
        <mxCell id="Uebg3OEyPI29N-F5zzTL-59" value="" style="endArrow=none;html=1;rounded=0;fontSize=9;entryX=0.02;entryY=0.496;entryDx=0;entryDy=0;entryPerimeter=0;exitX=1;exitY=0.167;exitDx=0;exitDy=0;exitPerimeter=0;" parent="1" source="Uebg3OEyPI29N-F5zzTL-35" target="Uebg3OEyPI29N-F5zzTL-57" edge="1">
          <mxGeometry width="50" height="50" relative="1" as="geometry">
            <mxPoint x="200" y="130" as="sourcePoint" />
            <mxPoint x="250" y="80" as="targetPoint" />
          </mxGeometry>
        </mxCell>
        <mxCell id="Uebg3OEyPI29N-F5zzTL-60" value="1..1" style="text;html=1;strokeColor=none;fillColor=none;align=center;verticalAlign=middle;whiteSpace=wrap;rounded=0;fontSize=9;" parent="1" vertex="1">
          <mxGeometry x="220" y="86" width="20" height="20" as="geometry" />
        </mxCell>
        <mxCell id="Uebg3OEyPI29N-F5zzTL-61" value="0..1" style="text;html=1;strokeColor=none;fillColor=none;align=center;verticalAlign=middle;whiteSpace=wrap;rounded=0;fontSize=9;" parent="1" vertex="1">
          <mxGeometry x="415" y="86" width="20" height="20" as="geometry" />
        </mxCell>
        <mxCell id="Uebg3OEyPI29N-F5zzTL-62" value="team_players" style="rhombus;whiteSpace=wrap;html=1;fontSize=9;strokeWidth=1;align=center;verticalAlign=middle;" parent="1" vertex="1">
          <mxGeometry x="280" y="160" width="80" height="80" as="geometry" />
        </mxCell>
        <mxCell id="Uebg3OEyPI29N-F5zzTL-63" value="" style="endArrow=none;html=1;rounded=0;fontSize=9;exitX=1.001;exitY=0.613;exitDx=0;exitDy=0;exitPerimeter=0;entryX=0;entryY=0.5;entryDx=0;entryDy=0;" parent="1" source="Uebg3OEyPI29N-F5zzTL-35" target="Uebg3OEyPI29N-F5zzTL-62" edge="1">
          <mxGeometry width="50" height="50" relative="1" as="geometry">
            <mxPoint x="270" y="220" as="sourcePoint" />
            <mxPoint x="320" y="170" as="targetPoint" />
          </mxGeometry>
        </mxCell>
        <mxCell id="Uebg3OEyPI29N-F5zzTL-64" value="" style="endArrow=none;html=1;rounded=0;fontSize=9;entryX=-0.001;entryY=0.617;entryDx=0;entryDy=0;entryPerimeter=0;exitX=1;exitY=0.5;exitDx=0;exitDy=0;" parent="1" source="Uebg3OEyPI29N-F5zzTL-62" target="Uebg3OEyPI29N-F5zzTL-26" edge="1">
          <mxGeometry width="50" height="50" relative="1" as="geometry">
            <mxPoint x="360" y="210" as="sourcePoint" />
            <mxPoint x="430" y="200" as="targetPoint" />
          </mxGeometry>
        </mxCell>
        <mxCell id="Uebg3OEyPI29N-F5zzTL-65" value="1..*" style="text;html=1;strokeColor=none;fillColor=none;align=center;verticalAlign=middle;whiteSpace=wrap;rounded=0;fontSize=9;" parent="1" vertex="1">
          <mxGeometry x="220" y="180" width="20" height="20" as="geometry" />
        </mxCell>
        <mxCell id="Uebg3OEyPI29N-F5zzTL-66" value="0..*" style="text;html=1;strokeColor=none;fillColor=none;align=center;verticalAlign=middle;whiteSpace=wrap;rounded=0;fontSize=9;" parent="1" vertex="1">
          <mxGeometry x="415" y="180" width="20" height="20" as="geometry" />
        </mxCell>
        <mxCell id="oHW8rNx_q3lXavUMpPMO-2" value="0..*" style="text;html=1;strokeColor=none;fillColor=none;align=center;verticalAlign=middle;whiteSpace=wrap;rounded=0;fontSize=9;" vertex="1" parent="1">
          <mxGeometry x="560" y="140" width="20" height="20" as="geometry" />
        </mxCell>
        <mxCell id="oHW8rNx_q3lXavUMpPMO-3" value="1..1" style="text;html=1;strokeColor=none;fillColor=none;align=center;verticalAlign=middle;whiteSpace=wrap;rounded=0;fontSize=9;" vertex="1" parent="1">
          <mxGeometry x="710" y="140" width="20" height="20" as="geometry" />
        </mxCell>
        <mxCell id="oHW8rNx_q3lXavUMpPMO-4" value="start_date" style="rounded=0;whiteSpace=wrap;html=1;fontSize=9;strokeWidth=1;align=center;verticalAlign=middle;" vertex="1" parent="1">
          <mxGeometry x="275" y="260" width="90" height="20" as="geometry" />
        </mxCell>
        <mxCell id="oHW8rNx_q3lXavUMpPMO-5" value="" style="endArrow=none;dashed=1;html=1;dashPattern=1 3;strokeWidth=2;rounded=0;fontSize=9;entryX=0.5;entryY=1;entryDx=0;entryDy=0;exitX=0.5;exitY=0;exitDx=0;exitDy=0;" edge="1" parent="1" source="oHW8rNx_q3lXavUMpPMO-4" target="Uebg3OEyPI29N-F5zzTL-62">
          <mxGeometry width="50" height="50" relative="1" as="geometry">
            <mxPoint x="310" y="300" as="sourcePoint" />
            <mxPoint x="360" y="250" as="targetPoint" />
          </mxGeometry>
        </mxCell>
        <mxCell id="oHW8rNx_q3lXavUMpPMO-6" value="end_date" style="rounded=0;whiteSpace=wrap;html=1;fontSize=9;strokeWidth=1;align=center;verticalAlign=middle;" vertex="1" parent="1">
          <mxGeometry x="275" y="290" width="90" height="20" as="geometry" />
        </mxCell>
        <mxCell id="oHW8rNx_q3lXavUMpPMO-7" value="" style="endArrow=none;dashed=1;html=1;dashPattern=1 3;strokeWidth=2;rounded=0;fontSize=9;entryX=0.5;entryY=1;entryDx=0;entryDy=0;exitX=0.5;exitY=0;exitDx=0;exitDy=0;" edge="1" parent="1" source="oHW8rNx_q3lXavUMpPMO-6">
          <mxGeometry width="50" height="50" relative="1" as="geometry">
            <mxPoint x="310" y="340" as="sourcePoint" />
            <mxPoint x="320.00000000000006" y="280" as="targetPoint" />
          </mxGeometry>
        </mxCell>
        <mxCell id="oHW8rNx_q3lXavUMpPMO-8" value="tshirt_number" style="rounded=0;whiteSpace=wrap;html=1;fontSize=9;strokeWidth=1;align=center;verticalAlign=middle;" vertex="1" parent="1">
          <mxGeometry x="275" y="320" width="90" height="20" as="geometry" />
        </mxCell>
        <mxCell id="oHW8rNx_q3lXavUMpPMO-9" value="" style="endArrow=none;dashed=1;html=1;dashPattern=1 3;strokeWidth=2;rounded=0;fontSize=9;entryX=0.5;entryY=1;entryDx=0;entryDy=0;" edge="1" parent="1" target="oHW8rNx_q3lXavUMpPMO-6">
          <mxGeometry width="50" height="50" relative="1" as="geometry">
            <mxPoint x="320" y="320" as="sourcePoint" />
            <mxPoint x="320.00000000000006" y="320" as="targetPoint" />
          </mxGeometry>
        </mxCell>
        <mxCell id="oHW8rNx_q3lXavUMpPMO-10" value="position" style="rounded=0;whiteSpace=wrap;html=1;fontSize=9;strokeWidth=1;align=center;verticalAlign=middle;" vertex="1" parent="1">
          <mxGeometry x="275" y="350" width="90" height="20" as="geometry" />
        </mxCell>
        <mxCell id="oHW8rNx_q3lXavUMpPMO-11" value="" style="endArrow=none;dashed=1;html=1;dashPattern=1 3;strokeWidth=2;rounded=0;fontSize=9;entryX=0.5;entryY=1;entryDx=0;entryDy=0;" edge="1" parent="1">
          <mxGeometry width="50" height="50" relative="1" as="geometry">
            <mxPoint x="320.00000000000006" y="350" as="sourcePoint" />
            <mxPoint x="320.00000000000006" y="339.99999999999994" as="targetPoint" />
          </mxGeometry>
        </mxCell>
        <mxCell id="oHW8rNx_q3lXavUMpPMO-12" value="contract_number" style="rounded=0;whiteSpace=wrap;html=1;fontSize=9;strokeWidth=1;align=center;verticalAlign=middle;" vertex="1" parent="1">
          <mxGeometry x="275" y="380" width="90" height="20" as="geometry" />
        </mxCell>
        <mxCell id="oHW8rNx_q3lXavUMpPMO-13" value="" style="endArrow=none;dashed=1;html=1;dashPattern=1 3;strokeWidth=2;rounded=0;fontSize=9;entryX=0.5;entryY=1;entryDx=0;entryDy=0;" edge="1" parent="1">
          <mxGeometry width="50" height="50" relative="1" as="geometry">
            <mxPoint x="320.00000000000006" y="380" as="sourcePoint" />
            <mxPoint x="320.00000000000006" y="369.99999999999994" as="targetPoint" />
          </mxGeometry>
        </mxCell>
      </root>
    </mxGraphModel>
  </diagram>
</mxfile>
